<?xml version="1.0" encoding="utf-8"?>
<!-- Generator: Adobe Illustrator 25.0.1, SVG Export Plug-In . SVG Version: 6.00 Build 0)  -->
<svg version="1.1" id="Layer_1" xmlns="http://www.w3.org/2000/svg" xmlns:xlink="http://www.w3.org/1999/xlink" x="0px" y="0px"
	 viewBox="0 0 576 157" style="enable-background:new 0 0 576 157;" xml:space="preserve">
<style type="text/css">
	.st0{clip-path:url(#SVGID_2_);}
	.st1{enable-background:new    ;}
	.st2{fill:#FFFFFF;}
	.st3{fill:none;}
</style>
<g>
	<defs>
		<rect id="SVGID_1_" width="576" height="157"/>
	</defs>
	<clipPath id="SVGID_2_">
		<use xlink:href="#SVGID_1_"  style="overflow:visible;"/>
	</clipPath>
	<g id="Exec-ed" class="st0">
		<g class="st1">
			<path class="st2" d="M42.6,61.1V45.6h-10v15.5h-7V26.4h7v13.5h10V26.4h7.1v34.8H42.6z"/>
			<path class="st2" d="M75.7,61.1l-2.5-8.3H63.1l-2.5,8.3h-7.3l11.4-34.9h7.6l11,34.9H75.7z M69.7,40.1c-0.4-1.6-1.4-6.1-1.4-6.1
				s-1,4.1-1.7,6.7c-0.6,2.5-1.1,4.2-1.8,6.5h6.8C71.6,47.1,70.4,43.4,69.7,40.1z"/>
			<path class="st2" d="M103.8,61.1c-1.3-2.3-1.9-3.2-3.2-5.7c-3.5-6.3-4.5-8-5.8-8.5c-0.4-0.1-0.7-0.2-1.1-0.3v14.5h-6.8V26.4h13
				c6.2,0,10.2,4.1,10.2,10.2c0,5.2-3.5,9.5-7.8,9.6c0.7,0.6,1,0.9,1.5,1.5c2,2.5,8.4,13.5,8.4,13.5H103.8z M100.1,32.5
				c-0.8-0.3-2.3-0.5-4-0.5h-2.5v9.4H96c3,0,4.3-0.3,5.2-1.2c0.9-0.8,1.4-2,1.4-3.5C102.6,34.6,101.8,33.1,100.1,32.5z"/>
			<path class="st2" d="M129.2,61.4h-6.4l-11.8-35h7.7l5.8,18.1c0.5,1.6,1,3.5,1.6,6.1c0.5-2.2,1.4-5.1,2-7l5.9-17.2h7.4L129.2,61.4
				z"/>
			<path class="st2" d="M161.3,61.1l-2.5-8.3h-10.2l-2.5,8.3h-7.3l11.4-34.9h7.6l11,34.9H161.3z M155.2,40.1
				c-0.4-1.6-1.4-6.1-1.4-6.1s-1,4.1-1.7,6.7c-0.6,2.5-1.1,4.2-1.8,6.5h6.8C157.1,47.1,156,43.4,155.2,40.1z"/>
			<path class="st2" d="M189.3,61.1c-1.3-2.3-1.9-3.2-3.2-5.7c-3.5-6.3-4.5-8-5.8-8.5c-0.4-0.1-0.7-0.2-1.1-0.3v14.5h-6.8V26.4h13
				c6.2,0,10.2,4.1,10.2,10.2c0,5.2-3.5,9.5-7.8,9.6c0.7,0.6,1,0.9,1.5,1.5c2,2.5,8.4,13.5,8.4,13.5H189.3z M185.7,32.5
				c-0.8-0.3-2.3-0.5-4-0.5h-2.5v9.4h2.4c3,0,4.3-0.3,5.2-1.2c0.9-0.8,1.4-2,1.4-3.5C188.2,34.6,187.3,33.1,185.7,32.5z"/>
			<path class="st2" d="M224,55.9c-2.1,2.8-5.2,4.8-8.5,5c-1.3,0.1-3,0.2-5,0.2h-8.5V26.4h7c2,0,4.7,0.1,6.1,0.2
				c3,0.2,5.5,1.3,7.6,3.5c3.2,3.1,4.8,7.6,4.8,13.9C227.5,48.6,226.3,52.8,224,55.9z M217.9,34.8c-1.1-1.9-2.8-2.9-5.5-2.9h-3.2
				v23.6h3.8c4.6,0,6.7-3.6,6.7-10.9C219.6,40.5,219.3,37.1,217.9,34.8z"/>
		</g>
		<g class="st1">
			<path class="st2" d="M238.3,61.1V26.7h4.8v34.5H238.3z M253.6,61.1l-10.4-18.3l10.2-16.2h5.8l-10.8,16.1l11.2,18.4H253.6z"/>
			<path class="st2" d="M264.8,49.5v0.5c0,2,0.2,3.8,1,5.2c1,1.9,2.8,2.7,4.7,2.7c2.1,0,3.8-0.9,5.4-2.4l1.8,2.9
				c-2.2,2.2-4.9,3.3-7.8,3.3c-6.4,0-10.1-5-10.1-13.4c0-4.3,0.8-7.2,2.6-9.7c1.8-2.3,4.1-3.4,6.9-3.4c2.5,0,4.8,1,6.2,2.8
				c1.9,2.3,2.6,4.9,2.6,10.6v0.9H264.8z M272.6,40.8c-0.6-1.2-1.7-2-3.4-2c-3,0-4.2,2.7-4.4,7.5h8.6
				C273.3,43.8,273.1,41.9,272.6,40.8z"/>
			<path class="st2" d="M295.9,61.1V44c0-2.3-0.2-3.1-0.8-3.8c-0.5-0.6-1.2-0.8-2.1-0.8c-1.4,0-3.5,1-5.1,2.8v19h-4.5V42.2
				c0-3.3-0.6-5.1-0.8-5.8l4.3-1.1c0,0,0.7,1.5,0.8,3.2c2-2,4.3-3,6.8-3c1.9,0,3.5,0.8,4.5,2c1.1,1.2,1.4,2.9,1.4,4.5v19.2H295.9z"
				/>
			<path class="st2" d="M320.2,61.1V44c0-2.3-0.2-3.1-0.8-3.8c-0.5-0.6-1.2-0.8-2.1-0.8c-1.4,0-3.6,1-5.1,2.8v19h-4.5V42.2
				c0-3.3-0.6-5.1-0.8-5.8l4.3-1.1c0,0,0.7,1.5,0.8,3.2c2-2,4.3-3,6.8-3c1.8,0,3.5,0.8,4.5,2c1.1,1.2,1.4,2.9,1.4,4.5v19.2H320.2z"
				/>
			<path class="st2" d="M335.7,49.5v0.5c0,2,0.2,3.8,1,5.2c1,1.9,2.8,2.7,4.7,2.7c2.1,0,3.8-0.9,5.4-2.4l1.8,2.9
				c-2.2,2.2-4.9,3.3-7.8,3.3c-6.4,0-10.1-5-10.1-13.4c0-4.3,0.8-7.2,2.6-9.7c1.8-2.3,4.1-3.4,6.9-3.4c2.5,0,4.8,1,6.2,2.8
				c1.9,2.3,2.6,4.9,2.6,10.6v0.9H335.7z M343.5,40.8c-0.6-1.2-1.7-2-3.4-2c-3,0-4.2,2.7-4.4,7.5h8.6
				C344.2,43.8,344,41.9,343.5,40.8z"/>
			<path class="st2" d="M367.7,61.1c0,0-0.5-1.2-0.5-2.3c-1.3,1.6-2.8,2.8-5.4,2.8c-5.7,0-8.9-4.8-8.9-12.8c0-5.5,2.4-13.3,9.1-13.3
				c2,0,4,1,5,2.4c0,0-0.1-2-0.1-3.8v-9.5l4.5,0.7v28.2c0,3.8,0.2,6,0.6,7.6H367.7z M366.8,41.4c-0.9-1.2-2.2-2.1-4.2-2.1
				c-4.4,0-4.7,6.3-4.7,9.4c0,3.2,0,9,4.5,9c1.8,0,3.8-0.9,4.5-2.7V41.4z"/>
			<path class="st2" d="M387.4,61.8c-1.7,5.8-4,8.9-8.2,9.9l-1.5-3.3c3.3-1,4.5-2.5,5.8-7.2l-1.6,0.2c-0.4-1.8-1.4-6-2.1-8.3
				l-4.9-16.6l4.5-1.1l4.2,15.5c0.5,1.8,1.2,6,1.3,6.4c0-0.2,0.9-4,1.5-6.1l4-15.2h4.8L387.4,61.8z"/>
			<path class="st2" d="M415.3,61.7c-3.8,0-7.1-1.1-10-3.1l2.2-3.8c2.4,2,4.8,2.9,7.8,2.9c3.7,0,6.3-1.9,6.3-5.4
				c0-2.6-1.2-4.1-3.9-5.5l-4.7-2.3c-3.2-1.6-6.6-3.9-6.6-8.9c0-5.5,4.2-9.7,10.2-9.7c3.5,0,6.7,1.2,9.5,3.2l-2.2,3.5
				c-2.7-1.9-4.4-2.7-6.9-2.7c-3.2,0-5.4,1.8-5.4,4.6c0,2.6,0.9,3.9,3.7,5.2l5.2,2.6c3.8,1.9,6.4,4.5,6.4,9.1
				C426.8,58.1,421.6,61.7,415.3,61.7z"/>
			<path class="st2" d="M440.3,61.7c-3.2,0-5.5-1.1-7.1-3.6c-1.5-2.4-2.2-5.3-2.2-9.2c0-5.3,1.3-8.6,3.4-10.8
				c1.7-1.9,3.8-2.8,6.3-2.8c2.8,0,4.5,1,6.2,2.6l-2.2,3c-1.2-1.2-2.4-1.8-3.9-1.8c-4.7,0-4.7,7-4.7,10.2c0,5.1,1.5,8.7,4.7,8.7
				c1.7,0,3.2-0.8,4.5-2.3l2.3,2.8C445.3,60.9,443,61.7,440.3,61.7z"/>
			<path class="st2" d="M463.9,61.1V44.1c0-1.7-0.2-2.7-0.7-3.3c-0.5-0.6-1.3-1-2.2-1c-1.6,0-3.6,0.9-5.2,3.1v18.2h-4.6V30.7
				c0-3-0.4-4.8-0.5-5.3l4.6-0.8c0.1,0.5,0.5,2.6,0.5,6v5c0,1.5-0.2,2.8-0.2,2.8c1.7-1.8,4.2-3,6.9-3c2,0,3.6,0.8,4.6,2
				c1.1,1.3,1.4,3.4,1.4,5v18.6H463.9z"/>
			<path class="st2" d="M483.5,61.8c-7.6,0-9.7-7-9.7-13.4c0-6.2,2.3-13.2,9.6-13.2c7.5,0,9.8,7.2,9.8,13.4
				C493.2,54.9,490.9,61.8,483.5,61.8z M487.3,41.8c-0.7-1.8-2.2-2.8-3.9-2.8c-1.8,0-3.2,1.1-3.8,2.7c-0.7,1.8-0.9,4.2-0.9,6.4
				c0,2.5,0.2,5.9,1.1,7.7c0.7,1.4,2,2.4,3.8,2.4c2.2,0,3.4-1.6,4-3.8c0.5-1.7,0.6-3.6,0.6-5.5C488.2,46.3,488,43.6,487.3,41.8z"/>
			<path class="st2" d="M506.5,61.8c-7.6,0-9.7-7-9.7-13.4c0-6.2,2.3-13.2,9.6-13.2c7.5,0,9.8,7.2,9.8,13.4
				C516.2,54.9,513.9,61.8,506.5,61.8z M510.3,41.8c-0.7-1.8-2.2-2.8-3.9-2.8c-1.8,0-3.2,1.1-3.8,2.7c-0.7,1.8-0.9,4.2-0.9,6.4
				c0,2.5,0.2,5.9,1.1,7.7c0.7,1.4,2,2.4,3.8,2.4c2.2,0,3.4-1.6,4-3.8c0.5-1.7,0.6-3.6,0.6-5.5C511.1,46.3,511,43.6,510.3,41.8z"/>
			<path class="st2" d="M526.1,61.7c-1.5,0-2.6-0.5-3.3-1.2c-0.8-1-1.1-2.4-1.1-4.5v-25c0-3-0.4-4.8-0.5-5.3l4.5-0.8
				c0.1,0.5,0.7,2.6,0.7,6v23.7c0,2.7,0.2,3.4,1.3,3.4c0.2,0,0.6-0.1,0.6-0.1l0.8,3.2C528.2,61.5,527.4,61.7,526.1,61.7z"/>
		</g>
		<g class="st1">
			<path class="st2" d="M29,116V86.9h16.1l-0.6,3.9H33.9v7.9h8.9v4H34v9.1h11.6v4.1H29z"/>
			<path class="st2" d="M61.3,116c-0.8-1.2-4.2-7.2-4.6-7.9c-0.8,1.6-3.8,6.8-4.6,7.9h-5.8l7.9-11.5L48,95.3l5-1
				c1,1.6,2.9,4.9,3.9,6.9c0.6-1.4,2.7-5.6,3.4-6.5h5.4l-6.3,9.7l7.8,11.6H61.3z"/>
			<path class="st2" d="M73.4,106.6v0.3c0,2.9,1.1,6,5.3,6c2,0,3.7-0.7,5.3-2.1l1.8,2.8c-2.2,1.9-4.8,2.8-7.6,2.8
				c-6,0-9.8-4.3-9.8-11.1c0-3.7,0.8-6.2,2.6-8.3c1.7-2,3.8-2.9,6.5-2.9c2.1,0,4,0.5,5.8,2.2c1.8,1.7,2.8,4.3,2.8,9.2v1H73.4z
				 M77.5,97.7c-2.6,0-4,2.1-4,5.5h7.9C81.3,99.8,79.8,97.7,77.5,97.7z"/>
			<path class="st2" d="M98.9,116.5c-5.8,0-9-4.1-9-10.9c0-7.7,4.6-11.4,9.4-11.4c2.3,0,4,0.5,5.9,2.3l-2.3,3.1
				c-1.3-1.1-2.4-1.6-3.6-1.6c-1.5,0-2.7,0.8-3.4,2.1c-0.6,1.3-0.9,3.3-0.9,5.9c0,2.9,0.5,4.7,1.4,5.8c0.7,0.8,1.7,1.2,2.8,1.2
				c1.5,0,2.9-0.7,4.3-2.1l2.2,2.8C103.8,115.6,101.8,116.5,98.9,116.5z"/>
			<path class="st2" d="M124.3,116.6c-0.9-0.7-1.5-1.4-1.8-2.6c-1.6,1.8-3.6,2.6-6,2.6c-2.4,0-4.2-0.8-5.3-2.1c-0.8-1-1.2-2.4-1.2-5
				V95.1l4.5-0.8v14.2c0,2.6,0.4,4.6,3.1,4.6c1.6,0,3.4-1.3,4.2-2.8V95.1l4.5-0.8v16c0,3.2,1.3,4.2,1.3,4.2L124.3,116.6z"/>
			<path class="st2" d="M138.5,116.5c-4.1,0-5.5-2.4-5.5-5.5V97.9h-2.4v-3.2h2.4c0-1.8,0-3.7,0.2-5.3l4.7-1.1
				c-0.2,1.7-0.4,4.3-0.4,6.4h5.1l-1.2,3.2h-3.9v11.9c0,2.6,0.6,3.4,2.6,3.4c0.6,0,1.2-0.1,2-0.4l0.6,2.8
				C141.2,116.2,139.9,116.5,138.5,116.5z"/>
			<path class="st2" d="M149.1,91.6c-1.7,0-3-1.4-3-3.1c0-1.7,1.3-3.1,3.1-3.1c1.6,0,3,1.3,3,3.1C152.2,90.2,150.8,91.6,149.1,91.6z
				 M146.8,116V95.1l4.7-0.8V116H146.8z"/>
			<path class="st2" d="M166.8,116.1h-4.1L155,94.9l4.7-0.7l3.7,11.5c0.7,2.2,1.3,4.7,1.3,4.7h0.1c0,0,0.5-2.5,1.3-4.9l3.5-10.8h4.8
				L166.8,116.1z"/>
			<path class="st2" d="M181.7,106.6v0.3c0,2.9,1.1,6,5.3,6c2,0,3.7-0.7,5.3-2.1l1.8,2.8c-2.2,1.9-4.8,2.8-7.6,2.8
				c-6,0-9.8-4.3-9.8-11.1c0-3.7,0.8-6.2,2.6-8.3c1.7-2,3.8-2.9,6.5-2.9c2.1,0,4,0.5,5.8,2.2c1.8,1.7,2.8,4.3,2.8,9.2v1H181.7z
				 M185.8,97.7c-2.6,0-4,2.1-4,5.5h7.9C189.6,99.8,188.1,97.7,185.8,97.7z"/>
			<path class="st2" d="M208.8,116V86.9H225l-0.6,3.9h-10.7v7.9h8.9v4h-8.9v9.1h11.6v4.1H208.8z"/>
			<path class="st2" d="M242.4,116c-0.2-0.5-0.3-0.8-0.4-1.6c-1.4,1.4-3.1,2.1-5.2,2.1c-5.4,0-8.7-4.2-8.7-10.9
				c0-6.7,3.7-11.2,8.8-11.2c1.8,0,3.3,0.6,4.6,1.9c0,0-0.1-1.6-0.1-3.5V85l4.6,0.7v22.9c0,4.2,0.3,6.3,0.7,7.4H242.4z M241.4,99.8
				c-1-1.1-2.3-1.7-3.9-1.7c-2.9,0-4.3,2.4-4.3,7.5c0,4.7,0.9,7.1,4.4,7.1c1.7,0,3.1-1,3.7-2V99.8z"/>
			<path class="st2" d="M266.9,116.6c-0.9-0.7-1.5-1.4-1.8-2.6c-1.6,1.8-3.6,2.6-6,2.6c-2.4,0-4.2-0.8-5.3-2.1c-0.8-1-1.2-2.4-1.2-5
				V95.1l4.5-0.8v14.2c0,2.6,0.4,4.6,3.1,4.6c1.6,0,3.4-1.3,4.2-2.8V95.1l4.5-0.8v16c0,3.2,1.3,4.2,1.3,4.2L266.9,116.6z"/>
			<path class="st2" d="M283.2,116.5c-5.8,0-9-4.1-9-10.9c0-7.7,4.6-11.4,9.4-11.4c2.3,0,4,0.5,5.9,2.3l-2.3,3.1
				c-1.3-1.1-2.4-1.6-3.6-1.6c-1.5,0-2.7,0.8-3.4,2.1c-0.6,1.3-0.9,3.3-0.9,5.9c0,2.9,0.5,4.7,1.4,5.8c0.7,0.8,1.7,1.2,2.8,1.2
				c1.5,0,2.9-0.7,4.3-2.1l2.2,2.8C288.1,115.6,286.1,116.5,283.2,116.5z"/>
			<path class="st2" d="M308.4,116.9c-1.3-0.5-2.4-1.5-2.9-2.9c-1.7,1.9-3.6,2.6-5.8,2.6c-4.9,0-7.1-2.7-7.1-6.4
				c0-4.9,3.7-7.4,10.5-7.4h1.4v-1.1c0-2.4-0.4-3.7-2.9-3.7c-3.1,0-6.3,2.4-6.3,2.4l-2.1-3.3c3.2-2,5.8-2.9,9-2.9
				c3.3,0,5.5,1.2,6.5,3.5c0.4,0.9,0.4,2.1,0.3,5.2l-0.1,6.1c0,2.9,0.2,3.8,1.8,4.9L308.4,116.9z M303.6,105.9c-4.6,0-6,1.3-6,4
				c0,2,1.1,3.3,2.9,3.3c1.5,0,2.9-0.9,3.8-2.2l0.1-5C304.4,106,303.9,105.9,303.6,105.9z"/>
			<path class="st2" d="M321.2,116.5c-4.1,0-5.5-2.4-5.5-5.5V97.9h-2.4v-3.2h2.4c0-1.8,0-3.7,0.2-5.3l4.7-1.1
				c-0.2,1.7-0.4,4.3-0.4,6.4h5.1l-1.2,3.2h-3.9v11.9c0,2.6,0.6,3.4,2.6,3.4c0.6,0,1.2-0.1,2-0.4l0.6,2.8
				C324,116.2,322.6,116.5,321.2,116.5z"/>
			<path class="st2" d="M331.9,91.6c-1.7,0-3-1.4-3-3.1c0-1.7,1.3-3.1,3.1-3.1c1.6,0,3,1.3,3,3.1C335,90.2,333.6,91.6,331.9,91.6z
				 M329.6,116V95.1l4.7-0.8V116H329.6z"/>
			<path class="st2" d="M348.8,116.5c-5.8,0-9.4-4.3-9.4-11.1c0-6.8,3.7-11.2,9.3-11.2c6,0,9.5,4.5,9.5,11.2
				C358.2,112.3,354.6,116.5,348.8,116.5z M348.8,97.7c-2.9,0-4.2,2.2-4.2,7.4c0,6.2,1.6,8,4.3,8c2.7,0,4.2-2.2,4.2-7.6
				C353.2,99.5,351.5,97.7,348.8,97.7z"/>
			<path class="st2" d="M375.1,116v-14.1c0-2.9-0.7-3.7-2.4-3.7c-1.3,0-3.3,1-4.7,2.4V116h-4.5v-15.6c0-2.2-0.2-3.5-0.8-5l4.2-1.2
				c0.5,1,0.8,1.9,0.8,3c2.3-1.9,4.2-2.9,6.5-2.9c3.3,0,5.5,2,5.5,5.9V116H375.1z"/>
		</g>
		<g>
			<line id="Line_1_1_" class="st3" x1="22.9" y1="76" x2="554.3" y2="76"/>
		</g>
		<rect x="25.7" y="72.7" class="st2" width="508.5" height="2.9"/>
	</g>
</g>
</svg>
